# xmcd
# 
# Track frame offsets:
#     150
#     21822
#     36651
#     53337
#     70877
#     96119
#     112725
#     129604
#     150033
#     167167
#     185793
#     219607
# 
# Disc length: 2950
# 
# Revision: 3
# Processed by: cddbd v1.5.2PL0 Copyright (c) Steve Scherf et al.
# Submitted via: fre:ac v1.0.17
# 
DISCID=9c0b840c
DTITLE=Richard Hawley - Coles Corner
DYEAR=2005
DGENRE=Popular
TTITLE0=Coles Corner
TTITLE1=Just Like The Rain
TTITLE2=Hotel Room
TTITLE3=Darlin' Wait For Me
TTITLE4=The Ocean
TTITLE5=Born Under A Bad Sign
TTITLE6=I Sleep Alone
TTITLE7=Tonight
TTITLE8=(Wading Through) The Waters Of My Time
TTITLE9=Who's Gonna Shoe Your Pretty Little Feet
TTITLE10=Last Orders
TTITLE11=Data Track
EXTD=
EXTT0=
EXTT1=
EXTT2=
EXTT3=
EXTT4=
EXTT5=
EXTT6=
EXTT7=
EXTT8=
EXTT9=
EXTT10=
EXTT11=
PLAYORDER=
